<?xml version="1.0" encoding="UTF-8" standalone="no"?>
<svg
   version="1.0"
   viewBox="0 0 543.04536 402.39272"
   preserveAspectRatio="xMidYMid meet"
   id="svg18"
   sodipodi:docname="Logo_KCRI.svg"
   inkscape:version="1.1.2 (0a00cf5339, 2022-02-04)"
   xmlns:inkscape="http://www.inkscape.org/namespaces/inkscape"
   xmlns:sodipodi="http://sodipodi.sourceforge.net/DTD/sodipodi-0.dtd"
   xmlns="http://www.w3.org/2000/svg"
   xmlns:svg="http://www.w3.org/2000/svg">
  <defs
     id="defs22">
    <rect
       x="70.301895"
       y="270.36734"
       width="595.16992"
       height="240.33218"
       id="rect28107" />
    <rect
       x="138.69543"
       y="295.91257"
       width="503.22839"
       height="214.0177"
       id="rect11936" />
  </defs>
  <sodipodi:namedview
     id="namedview20"
     pagecolor="#ffffff"
     bordercolor="#666666"
     borderopacity="1.0"
     inkscape:pageshadow="2"
     inkscape:pageopacity="0.0"
     inkscape:pagecheckerboard="0"
     inkscape:document-units="pt"
     showgrid="false"
     inkscape:zoom="1.407341"
     inkscape:cx="362.03024"
     inkscape:cy="267.52578"
     inkscape:window-width="1920"
     inkscape:window-height="1016"
     inkscape:window-x="0"
     inkscape:window-y="27"
     inkscape:window-maximized="1"
     inkscape:current-layer="svg18"
     units="px"
     fit-margin-top="0"
     fit-margin-left="0"
     fit-margin-right="0"
     fit-margin-bottom="0"
     viewbox-width="1e-05"
     viewbox-height="1e-05" />
  <path
     style="fill:#000080;fill-opacity:0.5;stroke-width:0.333033"
     d="m 77.182722,211.89206 c 2.592461,-3.07761 12.131239,-12.72654 25.204798,-25.49584 14.04625,-13.71935 16.72672,-17.19485 22.0802,-28.62914 2.69593,-5.75818 3.27393,-7.85838 3.28001,-11.91822 0.005,-2.83468 -0.0891,-3.34181 -1.01383,-5.5095 -0.56017,-1.3131 -1.15432,-2.59406 -1.32032,-2.84659 -0.23582,-0.35871 -4.54315,-0.45913 -19.69708,-0.45913 H 86.321243 l -4.196361,2.98961 c -5.765898,4.10778 -8.985472,6.02313 -11.620696,6.91324 -2.880046,0.9728 -8.397079,1.92529 -18.393479,3.17556 l -8.002016,1.00082 -5.586312,4.28568 c -9.855762,7.56111 -14.578089,10.83223 -15.211218,10.53669 -1.186209,-0.55368 -3.404947,-8.48112 -3.046105,-10.88359 0.291717,-1.95304 1.452021,-4.4675 4.865273,-10.54336 3.495188,-6.22171 4.031203,-7.50954 4.031203,-9.68539 0,-1.36415 -0.09466,-1.54785 -1.047171,-2.03194 -1.417758,-0.72056 -5.941606,-0.71357 -7.093446,0.011 -0.474936,0.29874 -2.200699,1.81516 -3.835031,3.36981 -5.072477,4.82519 -7.08898,6.54345 -10.3696009,8.8359 -3.073778,2.14791 -6.18421621,4.14695 -6.45251342,4.14695 -0.3727618,0 -0.4800529,-4.90347 -0.2232683,-10.20392 0.2355351,-4.86181 0.40996381,-6.28213 0.93286882,-7.59603 l 0.6431643,-1.61607 -0.6773771,-1.58648 c -0.52614221,-1.23226 -0.67220242,-2.16979 -0.65419882,-4.19913 0.048803,-5.50102 -0.082744,-5.43028 14.88628442,-8.00484 11.34933,-1.952 13.020575,-2.36026 24.157025,-5.90114 11.383361,-3.61939 11.556331,-3.65932 21.473062,-4.95553 12.18963,-1.59331 15.126445,-2.45721 25.331173,-7.451454 8.84036,-4.326515 15.446877,-8.075989 37.987707,-21.559591 7.52384,-4.500645 13.74722,-8.100865 13.82975,-8.000486 0.14858,0.180735 -9.26898,6.55743 -18.29958,12.390775 -16.99616,10.97871 -30.038139,17.848835 -51.317264,27.032396 -19.189553,8.28176 -21.59196,9.48321 -21.399048,10.70166 0.151993,0.96001 1.835227,1.22943 6.133508,0.98173 17.898693,-1.03146 43.880349,-10.4663 63.865134,-23.191635 10.21009,-6.501277 16.99695,-11.795997 27.51448,-21.465199 3.59043,-3.300833 8.27841,-7.266466 10.41772,-8.812515 11.95707,-8.641196 35.25955,-22.321287 62.753,-36.840153 11.32108,-5.978493 17.55029,-8.953788 23.87446,-11.4033 7.91603,-3.066081 9.65606,-4.325015 9.45794,-6.842964 l -0.0971,-1.2339158 -1.81178,0.03468 c -3.6808,0.07044 -20.02664,6.0378948 -29.89433,10.9136648 -13.64421,6.741809 -20.91914,10.720593 -44.05791,24.095998 -5.63095,3.254977 -10.29642,5.847197 -10.36769,5.760492 -0.37906,-0.461083 13.28843,-9.596668 24.22933,-16.195296 14.09134,-8.498718 23.97324,-13.448339 40.31203,-20.191401 12.72286,-5.2507567 16.82571,-6.5550485 32.91395,-10.4632949 3.40463,-0.8270724 6.51792,-1.5919244 6.91843,-1.6996707 0.70889,-0.1907073 0.71491,-0.1734068 0.22725,0.6524133 -1.22808,2.0796152 -1.66867,3.6249258 -2.02311,7.0957205 -0.20612,2.0183358 -0.48352,4.0257678 -0.61646,4.4609578 -0.29284,0.958704 -8.29533,9.55753 -11.10032,11.927509 -1.10644,0.934865 -4.66145,3.397887 -7.90001,5.473384 -6.51354,4.174341 -7.85103,5.227257 -7.85103,6.180551 0,0.640826 1.0515,2.269458 5.67624,8.791775 3.02219,4.262235 3.89656,6.372404 3.15156,7.605866 -0.89099,1.475122 -0.75081,1.461735 -17.40417,1.662408 -18.71812,0.225559 -16.87175,-0.165884 -23.44045,4.969559 -7.87492,6.156649 -9.41964,6.997501 -20.52471,11.172329 -16.21822,6.097068 -19.35583,7.940521 -35.63161,20.934784 -8.61636,6.879134 -8.86884,7.009884 -20.66946,10.704413 -4.47591,1.4013 -8.54223,2.835 -9.03629,3.18597 -0.49405,0.35098 -1.52758,1.62185 -2.29673,2.82416 -1.22729,1.91845 -1.85839,2.48388 -5.15597,4.6195 -4.00443,2.5934 -6.75611,5.26682 -7.42487,7.21369 -0.22502,0.6551 -0.40914,2.17344 -0.40914,3.37405 0,1.98669 0.0835,2.26845 0.92906,3.13386 0.84926,0.86923 1.16303,0.9509 3.65341,0.9509 1.87672,0 3.04251,-0.18363 3.74694,-0.59025 0.56244,-0.32464 2.65964,-2.43202 4.66045,-4.68308 12.49638,-14.05929 11.88852,-13.55362 18.12531,-15.07787 8.25506,-2.01751 19.50857,-3.55003 26.75725,-3.64384 2.68287,-0.0347 4.97733,0.0557 5.09878,0.20087 0.42373,0.50659 -0.75317,2.05595 -2.84919,3.7509 -1.16132,0.93909 -4.25924,2.86843 -6.88425,4.28739 -5.8605,3.16795 -11.24895,6.43574 -13.4982,8.18591 -1.63528,1.27242 -1.69225,1.37123 -1.69225,2.93547 0,1.85663 0.95551,5.88804 1.96899,8.30751 1.15046,2.74647 2.13976,3.64581 9.16144,8.32855 l 4.03431,2.69045 h 6.98386 6.98388 l 7.26748,-8.90703 c 7.98434,-9.78561 10.4652,-13.27077 19.15168,-26.90476 3.21772,-5.05038 6.43486,-10.021513 7.14925,-11.046956 l 1.29888,-1.864462 5.06605,-0.445304 c 10.72532,-0.942762 15.70984,-1.879728 19.40929,-3.64848 2.11826,-1.012763 3.39578,-1.91669 9.66281,-6.837013 4.60949,-3.618987 9.46197,-6.618698 13.38004,-8.271299 3.64877,-1.53902 4.54577,-2.249746 9.56914,-7.581914 7.31603,-7.765783 13.23277,-12.856973 13.94083,-11.995709 0.18007,0.219039 0.40857,7.127408 0.57539,17.395674 0.3002,18.477566 0.61768,25.021134 1.33379,27.489953 0.68647,2.36668 3.49139,7.28799 5.41521,9.50114 1.88038,2.16319 3.79654,3.32866 8.78008,5.34037 1.82687,0.73746 4.68041,2.24858 6.34121,3.35804 5.11127,3.41451 8.74931,5.61008 10.75904,6.49315 1.8801,0.82611 2.18173,0.84513 13.39799,0.84513 11.19334,0 11.50418,-0.0195 12.68244,-0.7953 0.66432,-0.43741 1.75139,-1.47884 2.4157,-2.31428 1.19913,-1.50801 1.2078,-1.53945 1.19796,-4.34692 -0.0106,-2.98888 -0.50674,-4.64889 -2.19682,-7.349 -1.25279,-2.00142 -2.0802,-2.29439 -8.52589,-3.01894 -6.90169,-0.7758 -7.567,-1.06008 -10.12919,-4.32812 -2.23689,-2.85314 -2.74977,-4.363799 -3.29107,-9.693969 -1.19873,-11.803273 -1.29739,-12.319309 -3.21623,-16.820768 -0.64584,-1.515112 -2.25436,-4.572885 -3.57452,-6.795059 l -2.40025,-4.040296 -0.008,-3.856653 c -0.01,-5.261879 0.51057,-17.780305 0.91643,-22.038021 0.3678,-3.858149 0.88741,-5.762532 1.67228,-6.128882 0.70352,-0.328377 3.87672,3.764808 5.50814,7.105056 1.68219,3.444256 2.32801,5.920529 3.35262,12.85506 1.13921,7.710201 1.33973,8.567671 2.82079,12.06344 2.16314,5.105737 13.23301,24.844475 16.21761,28.917671 2.05685,2.807114 3.29828,3.354532 7.15232,3.153966 3.76889,-0.196135 6.10828,-1.36767 8.09305,-4.052874 1.27637,-1.726781 1.68635,-2.617158 3.71249,-8.062274 0.51342,-1.379811 1.25067,-2.719387 1.68884,-3.068597 1.29048,-1.028515 1.80812,-0.55744 12.35654,11.244343 2.27359,2.543757 4.84698,5.105678 5.71866,5.693157 l 1.58482,1.06814 5.88828,-0.0107 5.88828,-0.0107 3.62354,-1.38105 c 7.64002,-2.911859 13.62423,-7.355785 14.14146,-10.50157 1.09529,-6.66131 -1.89152,-19.137197 -5.8395,-24.391596 -2.10882,-2.806948 -4.62028,-4.983659 -11.32131,-9.812505 -7.70727,-5.554261 -10.67389,-7.8043 -20.08,-15.229915 C 359.4601,29.962031 359.01585,29.693465 351.24318,27.404759 344.212,25.334396 341.1611,24.018199 332.89401,19.488776 317.33347,10.963357 317.30639,10.94374 314.79001,6.3778375 c -1.41589,-2.5691424 -4.5766,-3.2609957 -23.13568,-5.0642101 -5.18365,-0.50364722 -9.53191,-0.94858302 -9.66282,-0.98874522 -0.93379,-0.2865111 10.7693,-0.433712 18.33273,-0.230587 17.52906,0.4707622 27.08058,3.05441792 46.95522,12.70123882 3.32159,1.612244 7.53397,3.550516 9.36085,4.307269 4.90741,2.032807 37.26976,17.827582 53.29644,26.011859 18.01204,9.198135 28.81719,15.179544 43.93559,24.321458 19.35518,11.703839 27.40098,17.506796 40.91597,29.5103 7.5812,6.73332 11.86894,10.21113 18.76786,15.22269 6.27941,4.5615 18.33723,12.76495 23.59015,16.04933 l 3.23094,2.02015 0.004,15.72684 0.004,15.72684 -0.67942,-0.26064 c -1.49405,-0.57315 -11.91566,-5.95777 -17.89129,-9.24402 -7.873,-4.32968 -23.00516,-13.32968 -28.83745,-17.15131 -14.81859,-9.70994 -30.11001,-22.343 -48.46503,-40.039482 -6.65365,-6.414902 -7.74852,-7.022295 -9.28644,-5.151608 -1.5033,1.82856 -4.47806,9.842011 -5.35614,14.42835 -0.4103,2.1431 -1.40974,3.83724 -2.76759,4.69134 -0.48467,0.30487 -2.67658,1.35714 -4.87092,2.33836 -5.7709,2.58054 -6.68757,3.11845 -8.19579,4.80949 -1.40019,1.56994 -5.90965,9.39375 -5.90965,10.25314 0,0.26683 0.87416,2.40434 1.94256,4.75003 2.57034,5.64327 3.19081,7.48524 3.19081,9.47269 0,2.11357 -0.61588,3.36265 -2.38001,4.82696 -2.83555,2.35365 -7.5753,4.1567 -13.08813,4.97886 l -1.42689,0.21279 -4.43422,-9.08242 c -5.43453,-11.13126 -7.44886,-14.79081 -9.43651,-17.14372 l -1.53509,-1.81721 -7.78012,-0.26657 c -4.27909,-0.14663 -10.31299,-0.27927 -13.40872,-0.29478 l -5.6285,-0.0282 -1.92048,1.70984 c -3.08839,2.74961 -7.82117,7.59679 -9.68268,9.91671 -2.87396,3.58168 -2.8065,3.15494 -2.8065,17.75748 0,14.5937 0.38819,12.70925 -3.6459,17.69771 -1.65295,2.04401 -2.89842,3.27465 -3.46814,3.42685 -1.62459,0.43402 -3.76867,-0.77707 -6.09784,-3.44434 -2.59748,-2.97459 -3.7867,-5.7594 -4.85689,-11.37343 -0.41094,-2.15564 -1.17186,-6.16111 -1.69096,-8.90105 -1.57271,-8.3013 -2.55242,-10.0728 -8.06361,-14.58034 -3.67226,-3.0035 -8.69182,-6.76188 -10.61009,-7.94428 -0.86379,-0.53243 -3.84796,-2.10929 -6.63148,-3.50413 -2.7835,-1.39484 -6.75946,-3.52176 -8.83546,-4.72647 -8.52762,-4.94862 -11.16951,-5.39005 -30.64923,-5.12105 -14.40704,0.19894 -14.17396,0.1596 -19.24564,3.24935 -4.3414,2.64487 -7.79479,5.10458 -20.27685,14.44241 -5.99792,4.48702 -14.09856,10.44461 -18.00142,13.23908 -3.90287,2.79448 -8.11526,5.90829 -9.36085,6.91961 -3.65355,2.96634 -7.6205,8.11131 -10.83632,14.05425 -3.09974,5.7284 -3.93899,6.63915 -7.28145,7.9018 -3.34534,1.26373 -7.33053,1.80034 -13.28637,1.78898 -3.84665,-0.007 -6.33859,-0.19182 -8.00202,-0.59239 -1.32862,-0.31995 -3.58341,-0.66024 -5.0106,-0.75618 -2.37063,-0.15938 -2.8665,-0.0635 -5.73729,1.10902 -10.07824,4.11634 -22.13407,11.62856 -49.118325,30.60657 -7.018018,4.93575 -12.996878,9.06602 -13.286367,9.17836 -0.289481,0.11239 0.361003,-0.84913 1.445526,-2.13663 z m -17.371963,-68.2543 c 6.948245,-0.44906 10.006633,-0.91783 12.047074,-1.84644 2.572893,-1.17093 23.061006,-15.20341 25.485548,-17.45524 2.686299,-2.49497 4.120589,-6.06345 4.344789,-10.80966 l 0.0954,-2.02015 -1.811777,0.11994 c -2.4086,0.15947 -4.372946,0.78503 -17.412063,5.54504 -16.579864,6.0526 -21.149688,7.35481 -32.340735,9.21579 -3.633026,0.60415 -6.867767,1.26917 -7.188309,1.47786 -0.874925,0.56956 -0.774622,2.84562 0.202592,4.59721 0.431973,0.77429 2.572134,3.68519 4.755914,6.46867 3.612053,4.60397 4.065926,5.06163 5.027383,5.06934 0.581278,0.005 3.638652,-0.1584 6.794164,-0.36236 z"
     id="path5537" />
  <text
     xml:space="preserve"
     transform="matrix(0.75,0,0,0.75,-0.58148732,-1.2137288)"
     id="text11934"
     style="font-style:normal;font-variant:normal;font-weight:bold;font-stretch:normal;font-size:97.05728149px;line-height:1.25;font-family:Ubuntu;-inkscape-font-specification:'Ubuntu, Bold';font-variant-ligatures:normal;font-variant-caps:normal;font-variant-numeric:normal;font-variant-east-asian:normal;white-space:pre;shape-inside:url(#rect11936);fill:#000000;fill-opacity:1;stroke:none" />
  <text
     xml:space="preserve"
     style="font-style:normal;font-weight:bold;font-size:72.79296112px;line-height:1.25;font-family:Ubuntu;fill:#000000;fill-opacity:1;stroke:none;stroke-width:0.75;-inkscape-font-specification:'Ubuntu, Bold';font-stretch:normal;font-variant:normal;font-variant-ligatures:normal;font-variant-caps:normal;font-variant-numeric:normal;font-variant-east-asian:normal"
     x="141.27937"
     y="249.17433"
     id="text20741"><tspan
       sodipodi:role="line"
       id="tspan20739"
       style="stroke-width:0.75;-inkscape-font-specification:'Ubuntu, Bold';font-family:Ubuntu;font-weight:bold;font-style:normal;font-stretch:normal;font-variant:normal;font-size:72.79296112px;font-variant-ligatures:normal;font-variant-caps:normal;font-variant-numeric:normal;font-variant-east-asian:normal"
       x="141.27937"
       y="249.17433" /></text>
  <text
     xml:space="preserve"
     transform="matrix(1.9477752,0,0,2.0173773,-151.78992,-395.70218)"
     id="text28105"
     style="font-style:normal;font-variant:normal;font-weight:bold;font-stretch:normal;font-size:65.6105px;line-height:1.25;font-family:Ubuntu;-inkscape-font-specification:'Ubuntu, Bold';font-variant-ligatures:normal;font-variant-caps:normal;font-variant-numeric:normal;font-variant-east-asian:normal;white-space:pre;shape-inside:url(#rect28107);fill:#000080;fill-opacity:1;stroke:none"><tspan
       x="70.302734"
       y="391.39628"
       id="tspan51023"><tspan
         style="font-size:129.791px"
         id="tspan51021">KCRI</tspan></tspan></text>
  <path
     style="fill:#000080;fill-opacity:0.5;stroke-width:0.538763"
     d="m 78.616743,210.95415 c 0,-0.20587 8.440042,-8.87323 18.75564,-19.2608 20.246227,-20.38745 21.676857,-22.13682 26.776627,-32.74243 4.32021,-8.98443 4.94314,-13.96365 2.4516,-19.5962 l -1.05085,-2.37561 H 105.77785 86.005938 l -5.445578,3.69865 c -9.359343,6.3569 -10.429392,6.71524 -26.579135,8.90078 -5.400741,0.73088 -10.128391,1.51611 -10.50589,1.74497 -0.377498,0.22884 -3.595684,2.63467 -7.151523,5.34627 -8.63967,6.58844 -12.591688,9.15446 -13.165903,8.54856 -0.736645,-0.7773 -2.102572,-5.24049 -2.48416,-8.11704 -0.333766,-2.51605 -0.15833,-2.99332 4.28375,-11.65386 2.547473,-4.96669 4.631769,-9.61391 4.631769,-10.32714 0,-2.20303 -1.334746,-2.99007 -5.070912,-2.99007 h -3.377655 l -5.60815,5.14523 c -3.084483,2.82987 -7.729531,6.60106 -10.3223307,8.38043 l -4.71418062,3.23521 v -7.21728 c 0,-4.46009 0.27430106,-8.12871 0.71801602,-9.60306 0.5827507,-1.93634 0.5904724,-2.73907 0.040988,-4.26104 -0.87280122,-2.41752 -0.92735112,-5.49581 -0.1284616,-7.24917 0.7825306,-1.71747 2.8673422,-2.34504 15.2629809,-4.59441 10.988,-1.99394 12.912942,-2.4739 25.028009,-6.24046 7.297529,-2.26879 11.520227,-3.22659 18.852461,-4.27615 5.19673,-0.74388 11.329502,-1.86002 13.628385,-2.48032 C 80.83705,101.09697 94.96,93.841346 115.4309,81.632029 c 4.69099,-2.797815 8.6407,-4.975313 8.77712,-4.838873 0.36725,0.367245 -10.74081,7.43808 -20.13999,12.820103 -10.472805,5.99679 -21.353445,11.325831 -37.30408,18.270511 -15.740024,6.85298 -20.034551,9.05067 -19.823762,10.14463 0.592667,3.07587 17.725595,0.78192 33.600477,-4.49879 22.976885,-7.64317 42.270525,-19.115999 62.333605,-37.066259 8.69542,-7.779709 11.84748,-10.309877 17.83883,-14.319285 19.14814,-12.813898 63.85938,-37.368253 80.49662,-44.206831 7.64179,-3.141082 9.1905,-4.04894 9.84537,-5.771355 1.30513,-3.4327721 -1.29462,-3.6918303 -9.71886,-0.968456 -13.89743,4.492738 -30.50865,12.502554 -55.1596,26.597588 -7.36589,4.2117 -13.49698,7.553177 -13.62466,7.425505 -0.29702,-0.297026 7.98429,-5.673196 18.66635,-12.118054 14.55657,-8.78249 38.57868,-19.927015 52.89207,-24.5381021 6.26445,-2.0181075 24.07323,-6.5335929 24.41604,-6.1907842 0.1228,0.1228093 -0.11088,1.4266762 -0.51931,2.897482 -0.40844,1.4708052 -0.89736,4.051901 -1.08649,5.7357663 -0.33669,2.997559 -0.45995,3.183437 -5.89474,8.889598 -4.41679,4.637339 -7.10634,6.868908 -13.16448,10.92283 -4.18749,2.802144 -7.76093,5.558941 -7.94097,6.126214 -0.23091,0.727548 0.8715,2.797849 3.74205,7.027371 5.24197,7.723675 5.68558,8.70788 4.47207,9.921902 -0.81081,0.811146 -2.8448,0.968595 -16.79294,1.299907 -17.90025,0.425182 -18.02936,0.451802 -23.42164,4.828814 -6.73571,5.467506 -9.8241,7.130405 -22.27706,11.994793 -14.57102,5.69174 -17.67203,7.502847 -31.86867,18.61247 -5.03813,3.942607 -10.61339,7.831695 -12.39156,8.64387 -1.77791,0.812056 -6.83303,2.647436 -11.23359,4.078606 -7.89493,2.56764 -8.03327,2.63992 -10.43534,5.45157 -1.33889,1.56718 -3.92075,3.91751 -5.73747,5.22295 -1.81671,1.30542 -4.14029,3.24738 -5.1635,4.31544 -1.64435,1.71644 -1.88572,2.33987 -2.07858,5.36874 -0.19776,3.10575 -0.10056,3.5092 1.03742,4.30628 1.4461,1.01289 5.20252,1.1581 7.13861,0.27596 0.72852,-0.33193 3.66494,-3.21789 6.52538,-6.41324 2.86044,-3.19535 6.70039,-7.24709 8.53321,-9.00386 3.14852,-3.01788 3.59999,-3.25858 8.18129,-4.36203 11.11638,-2.67746 29.31231,-4.68351 30.58785,-3.37223 0.99778,1.02575 -2.449,3.76492 -10.38423,8.25236 -8.34028,4.71652 -12.73383,7.66351 -13.46667,9.03285 -0.65556,1.22493 0.46759,7.45098 1.88172,10.43106 1.11423,2.34807 2.17383,3.31014 8.04931,7.30845 l 4.81519,3.27677 h 7.31597 7.31598 l 6.78575,-8.48552 c 9.00576,-11.26161 10.31452,-13.09348 19.61192,-27.45051 4.37496,-6.75582 8.02853,-12.372851 8.11904,-12.482299 0.0905,-0.10944 3.63086,-0.54273 7.86745,-0.962857 13.06609,-1.29573 16.20298,-2.343788 23.32702,-7.79367 6.14247,-4.699005 12.35194,-8.711213 16.68551,-10.781243 3.103,-1.482217 4.99034,-3.039121 11.03854,-9.105884 7.55894,-7.582159 11.113,-10.620586 11.71674,-10.016847 0.19312,0.19312 0.53593,8.530619 0.76182,18.527779 0.52047,23.035207 0.69429,24.872715 2.73874,28.951931 1.93699,3.86481 4.21937,7.06815 5.89707,8.27656 0.67381,0.48533 3.90132,2.2228 7.17224,3.86105 3.27093,1.63824 8.46928,4.54756 11.5519,6.46516 l 5.60477,3.48653 12.59103,0.16246 c 12.11971,0.15638 12.65137,0.11949 14.20293,-0.98531 3.47895,-2.47723 4.13349,-7.40222 1.63472,-12.30022 -1.60384,-3.14377 -3.01907,-3.84578 -9.45782,-4.69142 -6.35804,-0.83505 -6.83973,-1.01977 -9.276,-3.55713 -2.57066,-2.67734 -3.23658,-4.828044 -4.44165,-14.345229 -1.20891,-9.547335 -1.8919,-11.70516 -6.02637,-19.039425 l -2.79111,-4.951242 0.35264,-11.900413 c 0.35348,-11.92872 0.95712,-17.838351 1.92049,-18.801733 0.76006,-0.760052 2.97321,1.964908 5.16753,6.362563 1.83577,3.679105 2.46542,6.182634 4.336,17.240432 0.81993,4.846899 1.35632,6.252808 5.3444,14.00785 5.88658,11.446806 13.11989,23.372346 15.01169,24.749736 1.19747,0.87186 2.25623,1.093312 4.92013,1.02912 5.87414,-0.14154 8.40616,-2.310195 11.63715,-9.967103 1.5069,-3.57111 2.5207,-5.305867 3.10078,-5.305867 0.47403,0 2.68099,2.00016 4.90434,4.4448 2.22336,2.44464 6.14896,6.566182 8.72354,9.158977 l 4.68108,4.714184 h 6.20627 c 5.85781,0 6.45225,-0.10375 10.58748,-1.84776 5.46056,-2.302979 9.09526,-4.612349 11.56919,-7.350689 1.87851,-2.079285 1.91411,-2.204355 1.91411,-6.724965 0,-7.750935 -2.46418,-16.167807 -6.23883,-21.309906 -1.35211,-1.841941 -5.05373,-5.001158 -11.48206,-9.799591 C 387.01774,51.031838 378.50598,44.543356 373.32038,40.507717 360.41733,30.466058 359.10131,29.67578 350.62712,26.880293 342.89954,24.3311 338.55549,22.315787 327.52995,16.164949 319.22175,11.530033 317.62446,10.345714 315.84118,7.4982404 315.06728,6.2624966 314.16726,5.0674109 313.84116,4.8424949 312.2369,3.7360185 306.74937,2.6881852 296.50369,1.5319394 l -11.27114,-1.27197192 6.73454,-0.0586642 c 15.79237,-0.13756575 27.88376,1.62004562 38.52159,5.59952012 13.29108,4.9720206 71.95247,33.3133176 96.70805,46.7229286 17.86992,9.679777 37.94827,21.851824 48.81225,29.591314 3.28931,2.3433 10.80506,8.407875 16.70167,13.47684 5.89661,5.068964 12.89894,10.903774 15.56073,12.966244 5.23127,4.05342 20.44258,14.63929 27.62088,19.22196 l 4.4448,2.83759 v 15.30288 c 0,8.41659 -0.15478,15.30288 -0.344,15.30288 -0.76343,0 -18.84913,-9.70333 -27.88819,-14.96254 -26.61202,-15.48376 -39.11329,-24.97602 -65.87408,-50.018434 -7.46225,-6.983085 -8.76614,-7.93707 -10.13191,-7.412977 -1.29309,0.496207 -3.87115,5.97438 -5.47996,11.644451 -2.16399,7.6268 -2.08627,7.53312 -8.95947,10.80019 -6.83715,3.24994 -8.47257,4.78199 -11.89754,11.14552 l -2.08006,3.86471 2.57235,6.02082 c 3.92704,9.19163 3.49409,11.60785 -2.63931,14.72962 -2.26194,1.15127 -10.57971,3.66064 -10.87024,3.27942 -0.0568,-0.0745 -2.80814,-5.46919 -6.11416,-11.98823 -3.30602,-6.51903 -6.82311,-12.81253 -7.81575,-13.98555 l -1.80481,-2.13276 -13.60139,-0.22338 -13.60139,-0.22338 -5.6138,5.58873 c -3.08758,3.07379 -6.27347,6.53747 -7.07974,7.69706 l -1.46595,2.10835 -0.26938,13.55779 -0.26938,13.5578 -1.42405,2.11305 c -0.78323,1.16218 -2.27372,3.02564 -3.3122,4.14102 -1.73207,1.86031 -2.0152,1.98014 -3.42483,1.44952 -2.39653,-0.90212 -5.35926,-4.12645 -6.84578,-7.45027 -0.74559,-1.66713 -2.09992,-6.78902 -3.00959,-11.38198 -2.40905,-12.16314 -2.80136,-13.12857 -7.00584,-17.24043 -6.39758,-6.25664 -13.54943,-10.75421 -31.81726,-20.00884 -5.68869,-2.88193 -9.14485,-3.28124 -26.55534,-3.06808 l -14.66007,0.17947 -3.77134,2.07967 c -2.07424,1.14382 -6.68067,4.19209 -10.23651,6.77392 -12.02373,8.73022 -37.70235,27.67803 -39.41229,29.08164 -2.77262,2.27592 -6.35822,6.96912 -10.34145,13.53596 -3.18973,5.25866 -4.09035,6.34692 -6.08811,7.35661 -4.70628,2.3786 -9.85672,2.66066 -26.85834,1.4709 l -4.5795,-0.32046 -7.81206,3.96218 c -9.22368,4.67815 -19.10499,10.95559 -38.524415,24.47398 -7.829685,5.45047 -14.36571,9.90994 -14.524485,9.90994 -0.158782,0 -0.288697,-0.16844 -0.288697,-0.37432 z M 65.416125,143.38546 c 2.678214,-0.32845 5.81287,-1.08176 7.003926,-1.68315 2.394379,-1.20898 16.861812,-10.94326 22.439322,-15.09808 4.616272,-3.43878 6.433407,-6.60263 6.809267,-11.85579 l 0.26836,-3.75061 -2.366457,0.39796 c -3.08313,0.51849 -4.261995,0.9006 -19.79583,6.41652 -14.042598,4.98639 -19.765829,6.5886 -29.981814,8.39334 -4.218658,0.74527 -6.695142,1.44168 -7.127017,2.00418 -1.325841,1.72687 -0.0022,4.41721 5.706276,11.59779 l 3.319381,4.17541 4.438318,-0.002 c 2.441073,-7.5e-4 6.619889,-0.26906 9.286268,-0.59605 z"
     id="path35260" />
  <path
     style="fill:#000080;fill-opacity:0.5;stroke-width:0.538763"
     d="m 97.143565,192.33705 c 9.347745,-9.55631 18.312135,-19.03415 19.920885,-21.06186 1.60874,-2.02771 4.26085,-6.27048 5.89358,-9.42836 5.19883,-10.0552 6.31341,-15.99175 4.10872,-21.88432 l -1.11624,-2.9834 H 105.76493 85.579338 l -4.793445,3.2231 c -9.290221,6.24673 -11.134494,6.84093 -30.141121,9.71103 l -7.229581,1.0917 -7.855797,5.8652 c -9.924663,7.40982 -11.827951,8.55849 -12.484654,7.53469 -0.773083,-1.20522 -1.591161,-4.30425 -1.906479,-7.22209 -0.273501,-2.53088 -0.02763,-3.23643 4.064949,-11.6647 5.890296,-12.13049 5.792014,-13.38781 -1.046502,-13.38781 h -3.318343 l -5.648488,4.98357 c -3.106668,2.74096 -7.62983,6.40344 -10.0514712,8.13883 -5.27213862,3.77813 -5.04327572,4.16811 -4.1139935,-7.01024 0.3410491,-4.10249 0.5625823,-8.30762 0.492296,-9.34473 -0.4559476,-6.7278 -0.2796243,-8.19941 1.1043854,-9.21723 0.869306,-0.63931 5.7408533,-1.86026 13.7384693,-3.44324 6.815358,-1.34899 16.391879,-3.64252 21.281158,-5.09674 12.253308,-3.64451 13.953927,-4.04083 25.50494,-5.9438 5.582597,-0.91971 11.478584,-2.16921 13.102192,-2.77668 1.623607,-0.60747 3.056167,-1.00033 3.18348,-0.87302 0.127312,0.12731 -6.617227,3.31052 -14.987861,7.07379 -8.370634,3.76328 -15.802678,7.28842 -16.51565,7.83366 -1.740036,1.33067 -1.165595,2.58858 1.402083,3.07028 5.31188,0.99651 23.769659,-2.90827 37.107785,-7.85025 19.23012,-7.12503 36.80527,-17.811401 54.10686,-32.899039 14.24181,-12.419401 18.33554,-15.456718 32.05643,-23.784111 22.05311,-13.384322 52.50063,-29.709966 68.63574,-36.801763 8.33382,-3.662936 10.42761,-5.146564 10.18724,-7.218522 -0.27284,-2.3517558 -3.40621,-2.1802421 -11.87191,0.649842 -12.2737,4.103095 -27.11659,11.118583 -46.63827,22.043554 -8.13157,4.550695 -10.96085,5.45354 -4.30555,1.373935 13.7444,-8.425129 32.08317,-17.370536 48.4831,-23.649401 6.3447,-2.4291281 24.3704,-7.6061066 29.19866,-8.3858486 2.09763,-0.3387588 2.09892,-0.3378369 1.70303,1.2240531 -0.2179,0.8596869 -0.73938,3.3479049 -1.15884,5.5293737 -0.53356,2.7748298 -1.23049,4.5569828 -2.32001,5.9326078 -3.02918,3.824654 -10.64013,10.623832 -16.22115,14.491029 -8.23194,5.704071 -8.81999,6.243677 -8.4399,7.744614 0.17672,0.697829 2.14338,4.056881 4.37037,7.46456 2.22697,3.407679 4.05461,6.626057 4.0614,7.151951 0.007,0.525894 -0.54303,1.167326 -1.22182,1.425406 -0.6788,0.258078 -8.01272,0.72726 -16.2976,1.042626 -8.28488,0.315365 -15.93333,0.826096 -16.99656,1.134964 -1.06323,0.308862 -4.29698,2.347043 -7.18612,4.529282 -6.09942,4.607058 -9.70605,6.48917 -21.76857,11.359856 -13.95969,5.63674 -16.30579,7.002182 -30.38308,17.683067 -4.82258,3.65904 -9.93221,7.334715 -11.35472,8.168168 -1.42251,0.833445 -6.58228,2.916626 -11.46616,4.629286 -9.28202,3.25498 -9.72457,3.48297 -12.23685,6.30409 -0.85236,0.95715 -3.71916,3.47029 -6.37066,5.58475 -2.6515,2.11447 -5.17627,4.53168 -5.61061,5.37159 -0.43695,0.84497 -0.78969,2.97454 -0.78969,4.76749 0,3.88721 0.55937,4.35449 5.21752,4.35853 l 3.13331,0.003 8.8896,-9.16357 c 5.62343,-5.79674 9.58242,-9.43946 10.77527,-9.91444 6.74568,-2.68605 33.9421,-6.00499 33.9421,-4.14214 0,0.93072 -3.1706,3.15195 -12.26383,8.5917 -12.71163,7.60432 -12.49512,7.3572 -11.44882,13.06788 1.08218,5.90647 2.40263,7.78025 8.5531,12.13711 l 5.59675,3.96467 7.87929,-0.0248 7.87929,-0.0248 3.23258,-4.10372 c 10.40718,-13.21181 12.78173,-16.43108 18.7932,-25.4787 3.64232,-5.48192 7.86724,-11.92011 9.38869,-14.307091 l 2.76627,-4.339965 8.23152,-0.938288 c 13.51631,-1.54068 16.03636,-2.50695 26.28009,-10.076632 2.81504,-2.080193 7.78513,-5.280803 11.04465,-7.11246 4.9282,-2.76936 7.06071,-4.425291 12.66094,-9.831459 9.61766,-9.284388 11.36615,-10.751688 11.85997,-9.952675 0.22702,0.367329 0.57577,7.364024 0.77501,15.548203 0.19923,8.184186 0.57891,17.789661 0.84372,21.345493 0.4498,6.039684 0.62672,6.752524 2.68844,10.831484 1.21384,2.40149 2.98227,5.10617 3.92988,6.0104 0.94759,0.90425 4.87467,3.32205 8.72683,5.37288 3.85216,2.05085 9.28295,5.1042 12.06844,6.78524 l 5.06452,3.05643 h 12.85728 12.85728 l 1.98254,-1.81686 c 1.82266,-1.67034 1.99858,-2.09396 2.18163,-5.25294 0.16216,-2.7986 -0.0323,-3.88004 -1.04761,-5.82899 -1.81346,-3.48069 -3.28251,-4.29835 -9.67879,-5.38715 -6.21846,-1.05852 -7.06232,-1.39136 -9.18384,-3.62231 -2.24124,-2.35684 -3.03746,-4.877356 -4.46499,-14.134419 -1.46236,-9.483037 -2.7662,-13.504612 -6.4475,-19.886916 l -2.48297,-4.304737 0.57196,-12.849229 c 0.5154,-11.578519 1.02218,-16.476148 1.78367,-17.23764 0.51223,-0.512234 2.64872,2.28343 4.38301,5.73532 1.82665,3.635733 2.72223,6.938316 4.60211,16.97105 0.96712,5.161429 1.61859,6.939101 5.04708,13.772077 4.89046,9.74668 11.83118,21.49456 14.42992,24.42409 l 1.96142,2.211098 4.00294,-0.03097 c 6.32843,-0.04897 8.20393,-1.651553 12.41635,-10.609613 1.07989,-2.296477 2.19679,-4.175415 2.482,-4.175415 0.55267,0 16.92067,16.412664 17.22395,17.270954 0.0995,0.28148 3.15884,0.50823 6.85694,0.50823 5.81628,0 7.14066,-0.17439 10.27026,-1.35237 5.0763,-1.910706 8.94893,-4.246011 11.84697,-7.144056 l 2.49897,-2.49897 -0.27795,-6.759165 c -0.45035,-10.951818 -3.39936,-17.973151 -9.86743,-23.493753 -4.56707,-3.898078 -34.89761,-26.973388 -38.59724,-29.364568 -1.70992,-1.105181 -4.98897,-2.673647 -7.28676,-3.48548 -9.31673,-3.291675 -15.29759,-5.882217 -21.95701,-9.510411 -10.54473,-5.744999 -14.00124,-8.133419 -16.2002,-11.1942123 -2.34318,-3.2615235 -3.80028,-3.7828378 -15.04808,-5.3837975 l -7.54269,-1.07359145 8.35083,0.22445048 c 9.00779,0.24210807 15.25811,1.14263527 22.89746,3.29900117 9.62076,2.7156625 37.25367,15.4814446 78.65946,36.3388956 40.04049,20.169706 65.3525,35.466411 83.4042,50.403336 4.98015,4.120845 12.36759,10.227891 16.41654,13.571221 7.61002,6.28383 22.10883,16.65918 31.79947,22.75571 l 5.54957,3.49131 -0.34249,14.81601 c -0.1883,8.14879 -0.42729,14.90127 -0.53101,15.00551 -0.44308,0.44528 -25.60462,-13.45685 -37.1638,-20.53355 -19.89289,-12.17874 -30.66399,-20.69154 -57.3783,-45.348216 -6.42351,-5.92875 -8.01125,-6.865328 -9.52625,-5.619383 -1.21795,1.001648 -3.5368,6.24123 -5.24968,11.861969 -0.7816,2.56477 -1.91378,5.28957 -2.51595,6.05511 -0.60218,0.76554 -3.47226,2.61307 -6.37796,4.10564 -6.22658,3.19836 -8.81197,5.63044 -11.7683,11.07044 l -2.1764,4.00484 1.86438,4.42063 c 4.03728,9.57275 4.11555,11.9568 0.48348,14.72711 -1.87252,1.42824 -10.18239,4.56991 -12.03575,4.5503 -0.64616,-0.007 -2.50777,-3.1375 -6.30454,-10.60238 -2.9632,-5.82597 -6.37225,-12.06452 -7.57567,-13.86345 l -2.18803,-3.27079 -13.97488,-0.37318 -13.97487,-0.37318 -2.8915,2.79762 c -1.59033,1.53868 -4.77238,4.93551 -7.07122,7.54849 l -4.17973,4.75087 -0.39564,13.9961 -0.39566,13.9961 -2.35513,3.13302 c -2.97859,3.9624 -3.67966,4.53162 -5.04686,4.09769 -1.63683,-0.51951 -4.2673,-2.88656 -5.64632,-5.08088 -1.64884,-2.62365 -2.63398,-5.844 -4.80761,-15.71568 -1.01699,-4.61874 -2.33414,-9.34638 -2.92701,-10.50588 -1.30128,-2.54499 -6.61224,-7.70096 -11.50429,-11.16855 -8.21501,-5.82299 -26.12581,-15.07593 -30.86399,-15.94473 -1.83289,-0.33608 -9.91359,-0.58617 -18.93966,-0.58617 h -15.74282 l -3.34064,1.88824 c -8.33129,4.70913 -49.8922,35.43678 -53.11725,39.27173 -1.1558,1.37437 -4.16223,5.58318 -6.68095,9.35291 -4.93807,7.39072 -6.58391,8.87941 -10.82149,9.78821 -3.1257,0.67035 -13.33638,0.71091 -21.50432,0.0854 l -5.65702,-0.4332 -4.84887,2.41654 c -10.80827,5.38654 -19.41024,10.79598 -43.167237,27.1462 -5.962785,4.10375 -11.0127,7.46137 -11.222025,7.46137 -0.209333,0 7.267552,-7.81881 16.615297,-17.37513 z M 70.535294,142.56114 c 1.62976,-0.56593 6.842299,-3.62889 11.583416,-6.80657 17.208023,-11.53348 18.6575,-13.04357 19.69091,-20.51435 0.32175,-2.32599 0.49463,-4.31944 0.38419,-4.42988 -0.65842,-0.65842 -12.741382,3.09365 -28.730363,8.92152 -5.289451,1.92797 -14.060909,4.27179 -21.957525,5.86728 -4.391597,0.88731 -8.331305,1.90093 -8.754907,2.25249 -1.76806,1.46736 -0.710649,3.95029 4.776943,11.21687 l 3.815628,5.05258 8.114257,-0.26548 c 6.051208,-0.19799 8.867643,-0.52709 11.077451,-1.29446 z"
     id="path35299" />
  <path
     style="fill:#000080;fill-opacity:0.5;stroke-width:0.538763"
     d="m 97.311783,200.1692 c 22.931587,-23.67934 24.926787,-26.05055 29.436847,-34.9845 4.38624,-8.68869 5.42381,-14.81495 3.52782,-20.82973 l -0.90654,-2.87586 H 108.70525 88.040575 l -4.962892,3.33949 c -8.185615,5.50803 -11.447569,6.55854 -28.673952,9.23441 l -8.086912,1.25618 -7.267848,5.38688 c -7.790108,5.77396 -11.508459,8.25997 -12.354522,8.25997 -0.76207,0 -2.186633,-5.17339 -2.186633,-7.94089 0,-1.72974 0.809672,-4.10723 3.039989,-8.9265 4.487927,-9.69752 5.041464,-11.09211 5.041464,-12.70152 0,-2.27157 -0.912003,-2.7569 -5.180643,-2.7569 h -3.887611 l -5.028925,4.38714 c -5.763797,5.02823 -13.205177,10.69824 -14.0404623,10.69824 -0.390801,0 -0.4374307,-2.55716 -0.1498209,-8.21614 0.2296655,-4.51888 0.3687418,-10.3215 0.3090584,-12.89472 -0.1604809,-6.91903 -1.8673941,-6.02139 20.8651928,-10.97273 4.829171,-1.05183 12.951031,-3.1167 18.048576,-4.5886 8.035725,-2.32027 32.118432,-7.27197 33.303054,-6.84752 0.229094,0.0821 -5.085016,2.68011 -11.809129,5.77339 -12.954661,5.95949 -15.188858,7.1953 -15.188858,8.40144 0,4.30737 23.819213,0.32628 42.562314,-7.11376 18.493015,-7.34077 34.455885,-17.334009 52.790475,-33.048476 10.54252,-9.03594 15.15556,-12.62321 21.82827,-16.974485 18.28232,-11.921923 51.82894,-30.354916 75.1575,-41.297087 10.35033,-4.854784 12.52977,-6.35201 12.28804,-8.441621 -0.14773,-1.277056 -0.42278,-1.452192 -2.51657,-1.602408 -1.33313,-0.09564 -3.98156,0.326703 -6.11807,0.975651 -2.07204,0.629364 -3.88586,1.025794 -4.0307,0.880957 -0.42593,-0.425931 16.94894,-5.556137 25.56449,-7.5483218 3.3327,-0.770622 3.3672,-0.766659 3.35901,0.385818 -0.0158,2.2334608 -2.14197,9.6115458 -3.19644,11.0924108 -2.0472,2.875037 -10.78269,10.729742 -16.55777,14.888288 -7.284,5.245089 -8.25322,6.107451 -8.25322,7.34325 0,0.890715 2.20567,4.827795 6.56616,11.720501 1.7421,2.75375 1.91626,4.141429 0.57246,4.561285 -0.51857,0.162018 -8.0532,0.667953 -16.74366,1.124301 -17.72729,0.930881 -16.73698,0.690426 -23.80598,5.780415 -6.01792,4.333167 -9.93936,6.368859 -21.92818,11.383302 -12.74599,5.331144 -16.56606,7.510524 -27.69443,15.799871 -12.85841,9.578009 -14.57709,10.602649 -22.83339,13.612789 -4.14849,1.51248 -8.60425,3.24036 -9.90171,3.83972 -2.19303,1.01308 -7.63773,5.58534 -14.44908,12.13382 l -2.85678,2.74651 v 3.74559 c 0,2.19487 0.26767,4.01324 0.64653,4.39208 0.3774,0.37742 2.18766,0.64653 4.34913,0.64653 h 3.70262 l 7.02015,-7.26941 c 9.91459,-10.26661 11.36456,-11.39285 16.28901,-12.65231 8.1281,-2.07882 27.96497,-4.3685 28.98757,-3.34589 0.70766,0.70765 -2.55926,3.07617 -12.17481,8.82673 -4.11432,2.46056 -8.33143,5.26268 -9.37137,6.22694 -1.88753,1.75018 -1.89021,1.75939 -1.55384,5.36145 0.57122,6.11709 2.25903,8.75325 8.59152,13.419 l 5.4019,3.9801 h 8.24339 8.24338 l 3.9823,-5.0022 c 7.75351,-9.73926 14.87393,-19.65201 22.33582,-31.09496 6.86478,-10.52727 7.71852,-11.61863 9.36361,-11.969649 0.99556,-0.21244 5.32555,-0.85759 9.62219,-1.43367 11.19706,-1.50127 11.90159,-1.80975 26.60554,-11.649175 3.98537,-2.66688 8.95067,-5.914553 11.03401,-7.217055 2.08334,-1.302497 6.64951,-5.079827 10.14704,-8.394062 7.91599,-7.501146 10.37031,-9.650542 10.67344,-9.347407 0.13056,0.130564 0.49808,7.739187 0.81671,16.908061 0.81361,23.412217 1.06762,25.604087 3.5487,30.621837 1.11422,2.25339 2.75094,4.83872 3.63716,5.74518 1.64653,1.6841 2.30782,2.08857 17.41369,10.65075 l 8.71878,4.94192 h 13.19439 13.19439 l 1.65792,-1.65792 c 2.01379,-2.0138 2.39149,-3.36056 2.09439,-7.46802 -0.17269,-2.38737 -0.59029,-3.63447 -1.70748,-5.09918 -1.95148,-2.55852 -3.44671,-3.26431 -9.1952,-4.3404 -5.63628,-1.05507 -7.11127,-1.72959 -9.3448,-4.27346 -1.75501,-1.99885 -1.94892,-2.70457 -4.67927,-17.029519 -1.22732,-6.439225 -1.77043,-8.045612 -4.73596,-14.007853 l -3.34968,-6.734544 0.14787,-4.579489 c 0.2367,-7.329851 1.20844,-22.248698 1.5353,-23.570903 0.43654,-1.765909 0.9547,-1.515043 2.78201,1.346909 2.51356,3.936758 3.77836,7.682577 5.76836,17.083458 1.71633,8.10797 2.09437,9.175648 6.11247,17.262714 4.62721,9.313011 10.17603,18.787358 13.64697,23.301517 2.17149,2.82415 2.17952,2.82849 5.20721,2.81566 7.09042,-0.0301 8.86715,-1.28607 13.0359,-9.215369 1.53784,-2.92512 2.94956,-5.31839 3.13714,-5.31839 0.18758,0 4.21446,3.8791 8.94864,8.62021 l 8.60758,8.620219 7.01024,-0.0185 c 6.37663,-0.0169 7.35411,-0.15427 10.81484,-1.52016 4.46227,-1.7612 8.86461,-4.57604 11.65651,-7.453149 l 1.99202,-2.0528 -0.49571,-6.95012 C 412.14454,77.274366 409.88489,71.575083 404.10121,66.164728 400.8168,63.092322 387.35762,52.590486 372.62808,41.607101 364.10887,35.254561 361.38497,33.71864 353.41543,30.773679 344.39815,27.441555 329.78779,20.100966 324.06031,16.024981 c -1.03711,-0.73807 -3.21911,-2.731836 -4.84887,-4.430588 -3.19592,-3.3312168 -4.24619,-3.7803038 -11.85279,-5.0681898 -3.80805,-0.644744 -3.89214,-0.687923 -1.46037,-0.749819 4.30954,-0.10969 12.73748,1.004649 18.43142,2.436995 11.07989,2.7872178 28.98211,10.8396838 72.46369,32.5943538 55.02276,27.528945 72.39513,38.109655 100.21056,61.033627 16.70399,13.76654 21.9094,17.66877 36.07151,27.04097 4.60675,3.04866 8.77601,5.85729 9.26494,6.24138 0.80464,0.63207 0.85081,2.04186 0.48672,14.84808 -0.22127,7.78233 -0.54523,14.29263 -0.7199,14.4673 -0.33517,0.33515 -5.34673,-2.28021 -19.51255,-10.1829 -27.04283,-15.08638 -41.38854,-25.2944 -63.03534,-44.85419 -18.3495,-16.580399 -18.91636,-17.020859 -20.91735,-16.253009 -0.93423,0.3585 -3.5946,5.986 -5.40102,11.424819 -2.04768,6.16516 -2.97569,7.42395 -7.18335,9.74364 -8.68135,4.78604 -10.8351,6.8043 -14.43441,13.52632 l -1.49763,2.79696 2.26048,5.55388 c 1.24327,3.05463 2.39783,6.69697 2.56569,8.09407 0.28277,2.35345 0.17112,2.67381 -1.51858,4.35746 -1.87813,1.87141 -9.53425,5.22453 -11.92907,5.22453 -1.45062,0 -2.19216,-1.15968 -9.22349,-14.42438 -2.55606,-4.82205 -5.26052,-9.69387 -6.00992,-10.82628 l -1.36252,-2.05892 -8.46931,-0.35127 c -4.65812,-0.19319 -11.18483,-0.35208 -14.50381,-0.35306 l -6.0345,-0.002 -6.68371,7.31913 -6.68371,7.31914 -0.34681,4.88581 c -0.19074,2.6872 -0.3468,8.08771 -0.3468,12.00115 0,10.39168 -0.23769,11.52423 -3.18848,15.19193 -1.39377,1.73241 -3.02758,3.19352 -3.67588,3.28734 -1.68561,0.24393 -5.69997,-3.6673 -7.09692,-6.91458 -0.63416,-1.47413 -2.00559,-6.25684 -3.04762,-10.62822 -3.15507,-13.23564 -3.49151,-14.01446 -7.93278,-18.36352 -2.13519,-2.09086 -4.97316,-4.61871 -6.3066,-5.61741 -6.79193,-5.08699 -26.29692,-15.40162 -31.24829,-16.52472 -1.36553,-0.30975 -9.87791,-0.55569 -19.48976,-0.5631 l -17.06532,-0.0132 -7.46952,5.01486 c -14.31511,9.61083 -43.21609,31.19175 -47.00017,35.09593 -0.99756,1.02923 -4.3815,5.43889 -7.51986,9.79925 -7.77999,10.80936 -6.21069,10.15947 -24.56283,10.1721 l -14.54661,0.0101 -6.19578,3.2664 c -9.99755,5.27067 -18.07414,10.39647 -40.677075,25.81565 -4.553797,3.10649 -8.445487,5.64817 -8.64819,5.64817 -0.20271,0 4.812068,-5.34957 11.143958,-11.88792 z M 70.402912,147.86884 c 2.790105,-0.42528 4.682367,-1.18737 8.393831,-3.38054 7.874265,-4.65304 18.512167,-12.19311 21.697787,-15.37923 3.2414,-3.2419 4.05066,-5.12543 4.64489,-10.81079 l 0.35367,-3.38361 -2.36424,0.37806 c -1.30034,0.20793 -7.70289,2.19366 -14.227912,4.41273 -17.547819,5.96777 -22.835023,7.55967 -32.067312,9.655 -11.879606,2.69616 -11.557779,2.58689 -11.762759,3.99357 -0.319096,2.1898 0.357435,3.56051 4.760209,9.64456 l 4.329355,5.98258 6.320161,-0.28163 c 3.476085,-0.1549 7.941131,-0.52871 9.92232,-0.8307 z"
     id="path35338" />
</svg>
